<svg width="750" height="170" viewBox="0 0 1434 170" fill="none" xmlns="http://www.w3.org/2000/svg">
  <rect width="1434" height="156" rx="10" fill="black"/>
  <path d="M84.84 54.04H39V63H80.12C77 69.96 72.92 78.52 69.4 85.4L79.48 88.2C84.44 78.04 90.2 65.64 94.12 55.8L86.52 53.56L84.84 54.04ZM52.6 37.56C58.36 32.44 63.24 27 66.68 22.04C70.2 27 75.4 32.44 81.24 37.56H52.6ZM61.48 12.76C55.48 22.68 42.6 35.56 29.08 43C31.16 45 33.88 48.36 35.08 50.6C40.28 47.48 45.32 43.88 49.88 39.96V46.36H83.8V39.72C88.68 43.8 93.88 47.48 98.92 50.44C100.68 47.56 102.76 44.52 105.16 42.12C92.68 36.28 79.56 25 71 12.76H61.48ZM159.24 16.52H147.64C147.88 17.48 148.2 20.2 148.44 23.48C148.52 24.12 148.52 24.92 148.6 25.96C137.72 26.12 123.16 26.44 114.04 26.44L114.28 36.12C124.12 35.56 136.6 35.08 148.68 34.92C148.76 36.68 148.76 38.52 148.76 40.28C147.72 40.12 146.68 40.04 145.56 40.04C136.84 40.04 129.56 45.96 129.56 55C129.56 64.76 137.16 69.72 143.32 69.72C144.6 69.72 145.8 69.56 146.92 69.32C142.52 74.12 135.48 76.76 127.4 78.44L135.96 86.92C155.48 81.48 161.56 68.2 161.56 57.8C161.56 53.64 160.6 49.88 158.68 46.84C158.68 43.32 158.6 38.92 158.6 34.84C169.48 34.84 176.92 35 181.72 35.24L181.8 25.8C177.64 25.72 166.68 25.88 158.6 25.88C158.68 24.92 158.68 24.04 158.68 23.4C158.76 22.12 159.08 17.8 159.24 16.52ZM139.16 54.84C139.16 50.6 142.2 48.44 145.32 48.44C147.48 48.44 149.4 49.4 150.52 51.24C151.64 58.28 148.68 60.84 145.32 60.84C142.12 60.84 139.16 58.52 139.16 54.84ZM239.4 34.68L233 37.32C235.16 40.52 237.88 46.12 239.56 49.4L246.12 46.6C244.6 43.72 241.48 37.72 239.4 34.68ZM249.08 30.92L242.52 33.64C244.76 36.76 247.56 42.12 249.4 45.48L255.88 42.76C254.28 39.8 251.16 33.88 249.08 30.92ZM244.44 23.32L235.08 15.08C233.88 17 231.24 19.56 229 21.88C223.56 27.08 212.6 35.96 206.36 41.08C198.28 47.8 197.72 52.04 205.64 58.84C213 65.08 224.68 75.08 229.56 80.12C231.88 82.52 234.36 85.08 236.6 87.56L245.8 79C237.64 71.08 222.52 59.08 216.52 54.04C212.12 50.28 212.04 49.4 216.36 45.72C221.64 41.16 232.28 33 237.4 28.84C239.32 27.32 241.96 25.24 244.44 23.32ZM306.68 16.6L296.28 16.36C296.36 17.72 296.2 19.64 296.12 21.16C295.96 22.52 295.8 23.96 295.64 25.48C294.6 25.48 293.56 25.48 292.44 25.48C287.56 25.48 280.52 24.84 277.72 24.36L277.96 33.64C281.72 33.8 287.96 34.12 292.12 34.12C293 34.12 293.8 34.12 294.68 34.12C294.36 37.4 294.12 40.76 293.96 44.2C282.76 49.48 274.28 60.2 274.28 70.52C274.28 78.6 279.24 82.12 285.08 82.12C289.32 82.12 293.56 80.84 297.48 78.92C297.8 80.04 298.2 81.16 298.52 82.2L307.72 79.4C307.08 77.48 306.44 75.48 305.88 73.48C311.96 68.44 318.36 60.04 322.68 49.16C328.2 51.32 331 55.56 331 60.36C331 68.2 324.76 76.04 309.32 77.72L314.6 86.12C334.28 83.16 340.92 72.2 340.92 60.84C340.92 51.56 334.76 44.28 325.48 41.24C325.96 39.72 326.6 38.04 326.92 37.16L317.16 34.84C317.08 36.04 316.76 38.04 316.44 39.64C315.96 39.64 315.48 39.64 315 39.64C311.08 39.64 306.92 40.2 303.08 41.08C303.16 38.68 303.4 36.2 303.64 33.8C313.48 33.4 324.2 32.44 332.04 31L331.96 21.72C323.16 23.8 314.52 24.84 304.76 25.24C305 23.64 305.32 22.2 305.56 20.84C305.88 19.64 306.2 18.2 306.68 16.6ZM283.72 68.44C283.72 63.88 287.72 57.8 293.72 53.72C293.88 59.24 294.52 64.76 295.4 69.72C292.52 71.4 289.64 72.36 287.4 72.36C284.84 72.36 283.72 71 283.72 68.44ZM302.76 49.8V49.56C305.88 48.6 309.56 47.88 313.8 47.8C311.08 54.28 307.48 59.16 303.72 63.08C303.08 59.08 302.76 54.68 302.76 49.8ZM384.76 16.6L373.72 15.48C373.56 19.64 372.68 24.44 371.56 28.84C369.08 29.08 366.68 29.16 364.28 29.16C361.32 29.16 357.08 29 353.64 28.6L354.36 37.88C357.8 38.12 361.08 38.2 364.36 38.2C365.72 38.2 367.08 38.2 368.52 38.12C365 46.76 358.52 58.52 352.2 66.36L361.88 71.32C368.36 62.28 375.16 48.28 379 37.08C384.36 36.28 389.32 35.24 393 34.28L392.68 25C389.56 25.96 385.8 26.84 381.88 27.56C383.08 23.24 384.12 19.16 384.76 16.6ZM380.6 71.96C380.6 69.16 383.56 67.08 388.2 67.08C390.44 67.08 392.6 67.4 394.68 67.88C394.68 68.52 394.68 69 394.68 69.48C394.68 73.88 393 76.92 387.48 76.92C383.08 76.92 380.6 74.92 380.6 71.96ZM403.48 41.48H393.48C393.64 46.36 394.04 53.48 394.36 59.4C392.52 59.24 390.76 59.08 388.84 59.08C377.72 59.08 371.16 65.08 371.16 72.92C371.16 81.72 379 86.12 388.92 86.12C400.28 86.12 404.36 80.36 404.36 72.92C404.36 72.68 404.36 72.36 404.36 72.12C408.76 74.76 412.36 78.12 415.16 80.68L420.52 72.12C416.44 68.44 410.84 64.44 403.96 61.88C403.8 57.88 403.56 54.04 403.48 51.72C403.4 48.2 403.24 44.84 403.48 41.48ZM417.24 45.72L422.92 37.32C418.84 34.36 408.92 28.92 403.16 26.44L398.04 34.36C403.48 36.84 412.6 42.04 417.24 45.72ZM473.96 61.48L464.44 60.52C463.8 63.72 463 67.56 463 71.24C463 79.32 470.28 83.96 483.72 83.96C490.12 83.96 495.56 83.4 500.04 82.84L500.44 72.6C494.68 73.64 489.16 74.28 483.8 74.28C475.24 74.28 472.84 71.64 472.84 68.12C472.84 66.36 473.32 63.72 473.96 61.48ZM464.92 17.16L452.68 16.2C452.92 18.04 452.76 21.32 452.44 24.28C452.28 25.56 452.04 27.08 451.72 28.84C449.24 29 446.84 29.08 444.52 29.08C441.24 29.08 438.52 28.92 434.44 28.44L434.68 38.44C437.48 38.6 440.52 38.76 444.36 38.76C446.04 38.76 447.8 38.68 449.64 38.6C449.16 40.92 448.52 43.16 447.96 45.32C445 56.52 438.92 73.32 434.12 81.32L445.24 85.08C449.72 75.56 455.08 59.24 457.96 48.04C458.84 44.76 459.64 41.24 460.36 37.8C465.72 37.16 471.16 36.28 475.96 35.16V25.16C471.56 26.2 467.08 27.08 462.6 27.72C462.84 26.6 463.08 25.56 463.24 24.68C463.56 22.92 464.28 19.32 464.92 17.16ZM469.64 41.32V50.68C474.68 50.12 479.64 49.88 485.08 49.88C489.96 49.88 494.84 50.36 498.84 50.84L499.08 41.24C494.36 40.76 489.56 40.52 485 40.52C479.88 40.52 474.12 40.92 469.64 41.32ZM581.16 52.84C581.16 35.4 568.68 21.64 548.84 21.64C528.12 21.64 512.12 37.4 512.12 55.88C512.12 69.4 519.48 79.16 528.36 79.16C537.08 79.16 543.96 69.24 548.76 53.08C551.08 45.56 552.44 38.2 553.56 31.4C564.36 33.24 570.36 41.48 570.36 52.52C570.36 64.2 562.36 71.56 552.12 73.96C549.96 74.44 547.72 74.92 544.68 75.24L550.68 84.76C570.84 81.64 581.16 69.72 581.16 52.84ZM522.36 54.84C522.36 46.04 529.48 34.36 542.68 31.64C541.8 38.28 540.28 45.08 538.44 51C535.16 61.8 532.04 66.84 528.68 66.84C525.56 66.84 522.36 62.92 522.36 54.84ZM630.04 28.36C627.96 24.2 623.08 18.28 619.16 13.88L611.88 18.28C615.8 22.76 620.36 29.16 622.28 33.24L630.04 28.36ZM599.72 14.44C597.24 20.6 592.84 26.92 588.12 30.84C590.36 32.28 594.04 35.64 595.72 37.32C600.6 32.44 605.96 24.6 609.08 17.16L599.72 14.44ZM624.44 55.96L630.2 50.04C629.56 48.84 628.76 47.48 627.88 46.2C629.4 47.16 630.92 48.2 631.8 48.92C634.36 45.24 636.52 40.6 638.36 35.32H639.96V44.36C639.96 52.2 637.16 68.2 624.44 78.12V55.96ZM615.56 74.12H604.84V62.76H615.56V74.12ZM601.24 54.28C605.56 49.64 609 44.92 611.72 40.68C615.56 44.68 619.24 49.96 621.56 54.28H601.24ZM649.24 35.32H654.84C654.2 39.88 653.48 44.44 652.76 47.64L660.2 49.8C661.8 44.28 663.48 35.56 664.6 27.96L658.36 26.36L656.92 26.68H640.92C641.88 22.76 642.6 18.76 643.24 14.6L633.48 13.24C632.12 24.04 629.24 34.76 624.6 41.72C621.56 38.04 617.96 34.2 614.6 31.08H606.04C602.76 38.44 596.84 47.16 588.12 53.72C590.2 55.16 593 58.52 594.36 60.68C595 60.2 595.56 59.72 596.12 59.16V87.08H604.84V82.52H623.56C624.92 84.44 626.36 86.68 627.08 88.12C638.2 80.92 643.48 67.72 644.6 60.68C645.64 67.56 650.36 81.32 660.12 88.12C661.56 85.72 664.28 81.72 665.96 79.72C652.44 70.04 649.24 52.6 649.24 44.44V35.32ZM696.68 17.56L683.8 17.4C684.52 20.6 684.84 24.44 684.84 28.2C684.84 35.08 684.04 56.12 684.04 66.84C684.04 80.52 692.52 86.28 705.64 86.28C723.88 86.28 735.24 75.56 740.36 67.88L733.08 59.08C727.32 67.8 718.92 75.4 705.72 75.4C699.48 75.4 694.68 72.76 694.68 64.68C694.68 54.76 695.32 36.84 695.64 28.2C695.8 25 696.2 20.92 696.68 17.56ZM767.8 23.8L755.48 23.64C755.96 26.12 756.12 29.56 756.12 31.8C756.12 36.68 756.2 46.04 757 53.4C759.24 74.84 766.84 82.76 775.64 82.76C782.04 82.76 787.08 77.88 792.36 63.96L784.36 54.2C782.84 60.6 779.64 69.96 775.88 69.96C770.84 69.96 768.44 62.04 767.32 50.52C766.84 44.76 766.76 38.76 766.84 33.56C766.84 31.32 767.24 26.68 767.8 23.8ZM807.8 25.64L797.64 28.92C806.36 38.84 810.6 58.28 811.88 71.16L822.36 67.08C821.48 54.84 815.4 34.84 807.8 25.64ZM864.52 16.92L853.24 16.28C853.4 18.04 853.4 19.64 853.16 23.4C853 25.24 852.76 27.4 852.52 29.88C846.68 29.4 840.68 28.36 836.04 26.84L835.48 36.04C840.2 37.4 845.88 38.36 851.4 38.92C851 42.52 850.52 46.28 850.04 49.88C844.84 49.32 839.48 48.44 834.28 46.68L833.72 56.36C837.96 57.56 843.24 58.44 849.08 59C848.76 62.28 848.52 65.16 848.52 67.08C848.52 80.44 857.4 85.88 869.96 85.88C887.48 85.88 898.36 77.24 898.36 65.16C898.36 58.36 895.88 52.68 890.6 45.96L879.32 48.36C884.6 53.32 887.56 58.44 887.56 63.88C887.56 70.44 881.48 75.56 870.28 75.56C862.44 75.56 858.36 72.04 858.36 65.4C858.36 63.96 858.52 61.96 858.68 59.56C859.72 59.56 860.84 59.56 861.88 59.56C866.92 59.56 871.56 59.24 876.04 58.84L876.28 49.32C871.08 49.96 865.16 50.28 860.2 50.28C860.04 50.28 859.8 50.28 859.64 50.28C860.04 46.68 860.52 42.92 861 39.4C867.4 39.4 871.8 39.08 876.6 38.6L876.92 29.08C873.16 29.64 868.04 30.12 862.28 30.2C862.6 27.56 862.92 25.4 863.16 24.04C863.48 21.96 863.8 19.8 864.52 16.92ZM981.16 52.84C981.16 35.4 968.68 21.64 948.84 21.64C928.12 21.64 912.12 37.4 912.12 55.88C912.12 69.4 919.48 79.16 928.36 79.16C937.08 79.16 943.96 69.24 948.76 53.08C951.08 45.56 952.44 38.2 953.56 31.4C964.36 33.24 970.36 41.48 970.36 52.52C970.36 64.2 962.36 71.56 952.12 73.96C949.96 74.44 947.72 74.92 944.68 75.24L950.68 84.76C970.84 81.64 981.16 69.72 981.16 52.84ZM922.36 54.84C922.36 46.04 929.48 34.36 942.68 31.64C941.8 38.28 940.28 45.08 938.44 51C935.16 61.8 932.04 66.84 928.68 66.84C925.56 66.84 922.36 62.92 922.36 54.84ZM1023.4 18.36L1011.48 17.16C1011.64 22.2 1010.92 28.04 1009.8 34.04C1005.72 34.44 1001.96 34.68 999.48 34.76C996.52 34.84 993.88 35 990.92 34.76L991.88 45.64C994.36 45.24 998.52 44.68 1000.84 44.28C1002.28 44.12 1004.84 43.8 1007.72 43.48C1004.76 54.44 999.24 70.6 991.48 81.08L1001.88 85.24C1009.24 73.48 1015.16 54.52 1018.2 42.36C1020.52 42.2 1022.52 42.04 1023.8 42.04C1028.76 42.04 1031.56 42.92 1031.56 49.32C1031.56 57.24 1030.44 66.92 1028.28 71.48C1027 74.12 1025 74.92 1022.28 74.92C1020.2 74.92 1015.56 74.12 1012.52 73.24L1014.2 83.8C1016.92 84.36 1020.76 84.92 1023.8 84.92C1029.88 84.92 1034.28 83.16 1036.92 77.56C1040.36 70.6 1041.48 57.64 1041.48 48.2C1041.48 36.68 1035.48 32.92 1027 32.92C1025.32 32.92 1023 33.08 1020.28 33.24C1020.84 30.36 1021.48 27.4 1021.96 25C1022.36 23 1022.92 20.44 1023.4 18.36ZM1059 11.72L1052.6 14.28C1054.84 17.32 1057.4 22.04 1059.08 25.32L1065.4 22.6C1064.04 19.8 1061.08 14.76 1059 11.72ZM1049.48 15.32L1043.16 17.96C1045 20.52 1047 24.36 1048.6 27.4L1041.4 30.52C1047.08 37.56 1052.76 51.64 1054.84 60.52L1065 55.88C1062.76 48.76 1056.76 35.4 1051.96 27.96L1055.88 26.28C1054.36 23.32 1051.48 18.28 1049.48 15.32ZM1143.64 54.2H1112.04V44.84H1138.92V35.72H1112.04V25.24C1120.84 24.2 1129.24 22.84 1136.36 21L1129.48 13.08C1116.36 16.52 1094.44 18.68 1075.16 19.48C1076.12 21.56 1077.32 25.4 1077.56 27.88C1085.4 27.56 1093.8 27.08 1102.12 26.36V35.72H1075.96V44.84H1102.12V54.2H1070.52V63.48H1102.12V76.36C1102.12 77.96 1101.4 78.52 1099.56 78.6C1097.8 78.6 1091.08 78.6 1085.16 78.36C1086.68 80.92 1088.52 85.08 1089.08 87.8C1097.24 87.88 1103 87.64 1106.84 86.2C1110.6 84.68 1112.04 82.2 1112.04 76.52V63.48H1143.64V54.2ZM1182.84 25.08V35.32C1192.92 36.28 1207.4 36.2 1217.24 35.32V25C1208.6 26.04 1192.68 26.44 1182.84 25.08ZM1189.24 59.24L1180.04 58.36C1179.16 62.44 1178.68 65.64 1178.68 68.76C1178.68 77 1185.32 81.88 1199.08 81.88C1208.12 81.88 1214.52 81.32 1219.72 80.36L1219.56 69.56C1212.52 71 1206.6 71.64 1199.48 71.64C1191.32 71.64 1188.28 69.48 1188.28 65.96C1188.28 63.8 1188.6 61.88 1189.24 59.24ZM1170.52 19.72L1159.32 18.76C1159.24 21.32 1158.76 24.36 1158.52 26.6C1157.64 32.76 1155.16 46.28 1155.16 58.28C1155.16 69.16 1156.68 78.92 1158.28 84.44L1167.56 83.8C1167.48 82.68 1167.4 81.4 1167.4 80.52C1167.4 79.72 1167.56 77.96 1167.8 76.76C1168.68 72.52 1171.32 63.8 1173.56 57.16L1168.6 53.24C1167.48 55.88 1166.2 58.68 1165 61.4C1164.76 59.8 1164.68 57.72 1164.68 56.2C1164.68 48.2 1167.48 32.2 1168.52 26.84C1168.84 25.4 1169.88 21.4 1170.52 19.72ZM1245.48 17.72V27.4H1263.72C1263.96 30.12 1264.28 33 1264.84 36.04L1259.96 35.16C1255.56 56.2 1246.04 71.64 1229.4 80.04C1231.88 81.88 1236.36 85.8 1238.12 87.8C1252.04 79.48 1261.64 66.2 1267.64 48.28C1272.04 62.6 1280.52 77.72 1297.08 87.72C1298.76 85.24 1302.68 81.08 1304.76 79.4C1275.32 62.04 1273.16 32.84 1273.16 17.72H1245.48ZM1338.2 71.56C1338.2 69.56 1340.12 67.72 1343.16 67.72C1347.48 67.72 1350.44 71.08 1350.92 76.28C1349.48 76.44 1347.96 76.52 1346.28 76.52C1341.48 76.52 1338.2 74.52 1338.2 71.56ZM1324.6 20.04L1324.92 30.44C1326.76 30.2 1329.32 29.96 1331.48 29.8C1335.72 29.56 1346.76 29.08 1350.84 29C1346.92 32.44 1338.6 39.16 1334.12 42.84C1329.4 46.76 1319.72 54.92 1314.04 59.48L1321.32 67C1329.88 57.24 1337.88 50.76 1350.12 50.76C1359.56 50.76 1366.76 55.64 1366.76 62.84C1366.76 67.72 1364.52 71.4 1360.12 73.72C1359 66.12 1353 60.04 1343.08 60.04C1334.6 60.04 1328.76 66.04 1328.76 72.52C1328.76 80.52 1337.16 85.64 1348.28 85.64C1367.64 85.64 1377.24 75.64 1377.24 63C1377.24 51.32 1366.92 42.84 1353.32 42.84C1350.76 42.84 1348.36 43.08 1345.72 43.72C1350.76 39.72 1359.16 32.68 1363.48 29.64C1365.32 28.28 1367.24 27.16 1369.08 25.96L1363.88 18.84C1362.92 19.16 1361.08 19.4 1357.8 19.72C1353.24 20.12 1336.12 20.44 1331.88 20.44C1329.64 20.44 1326.84 20.36 1324.6 20.04Z" fill="white"/>
  <path d="M27 91.4171L1397.46 91.417" stroke="#ED882B" stroke-opacity="0.8" stroke-width="25"/>
</svg>