<svg width="200" height="208" viewBox="0 0 721 208" fill="none" xmlns="http://www.w3.org/2000/svg">
  <path d="M717.665 145.391C719.538 143.361 719.411 140.198 717.381 138.325L684.31 107.808C682.28 105.936 679.117 106.063 677.244 108.092C675.372 110.122 675.499 113.285 677.528 115.158L706.925 142.284L679.799 171.681C677.926 173.71 678.053 176.873 680.083 178.746C682.112 180.619 685.275 180.492 687.148 178.462L717.665 145.391ZM11.2007 175.237L714.191 146.996L713.79 137.004L10.7993 165.245L11.2007 175.237Z" fill="#ED882B"/>
  <path d="M89.8594 131.664C85.1719 135.695 79.9219 138.789 74.1094 140.945C68.2969 143.102 62.2734 144.18 56.0391 144.18C51.2578 144.18 46.6406 143.547 42.1875 142.281C37.7812 141.062 33.6328 139.328 29.7422 137.078C25.8984 134.781 22.3828 132.039 19.1953 128.852C16.0078 125.664 13.2656 122.148 10.9688 118.305C8.71875 114.414 6.96094 110.266 5.69531 105.859C4.47656 101.406 3.86719 96.7891 3.86719 92.0078C3.86719 87.2266 4.47656 82.6094 5.69531 78.1562C6.96094 73.7031 8.71875 69.5547 10.9688 65.7109C13.2656 61.8203 16.0078 58.2812 19.1953 55.0938C22.3828 51.9063 25.8984 49.1875 29.7422 46.9375C33.6328 44.6406 37.7812 42.8828 42.1875 41.6641C46.6406 40.3984 51.2578 39.7656 56.0391 39.7656C62.2734 39.7656 68.2969 40.8437 74.1094 43C79.9219 45.1094 85.1719 48.2031 89.8594 52.2812L79.1719 69.8594C76.2188 66.6719 72.7266 64.2344 68.6953 62.5469C64.6641 60.8125 60.4453 59.9453 56.0391 59.9453C51.5859 59.9453 47.4141 60.7891 43.5234 62.4766C39.6328 64.1641 36.2344 66.4609 33.3281 69.3672C30.4219 72.2266 28.125 75.625 26.4375 79.5625C24.75 83.4531 23.9062 87.6016 23.9062 92.0078C23.9062 96.4141 24.75 100.562 26.4375 104.453C28.125 108.297 30.4219 111.672 33.3281 114.578C36.2344 117.484 39.6328 119.781 43.5234 121.469C47.4141 123.156 51.5859 124 56.0391 124C60.4453 124 64.6641 123.156 68.6953 121.469C72.7266 119.734 76.2188 117.273 79.1719 114.086L89.8594 131.664ZM169.664 103.68C169.664 109.305 168.656 114.555 166.641 119.43C164.625 124.258 161.883 128.453 158.414 132.016C154.945 135.531 150.867 138.32 146.18 140.383C141.539 142.398 136.547 143.406 131.203 143.406C125.906 143.406 120.914 142.398 116.227 140.383C111.586 138.32 107.508 135.531 103.992 132.016C100.523 128.453 97.7812 124.258 95.7656 119.43C93.75 114.555 92.7422 109.305 92.7422 103.68C92.7422 97.9609 93.75 92.6641 95.7656 87.7891C97.7812 82.9141 100.523 78.7188 103.992 75.2031C107.508 71.6406 111.586 68.8516 116.227 66.8359C120.914 64.8203 125.906 63.8125 131.203 63.8125C136.547 63.8125 141.539 64.7734 146.18 66.6953C150.867 68.5703 154.945 71.2656 158.414 74.7812C161.883 78.25 164.625 82.4453 166.641 87.3672C168.656 92.2422 169.664 97.6797 169.664 103.68ZM150.328 103.68C150.328 100.586 149.812 97.7969 148.781 95.3125C147.797 92.7812 146.438 90.625 144.703 88.8438C142.969 87.0156 140.93 85.6328 138.586 84.6953C136.289 83.7109 133.828 83.2188 131.203 83.2188C128.578 83.2188 126.094 83.7109 123.75 84.6953C121.453 85.6328 119.438 87.0156 117.703 88.8438C116.016 90.625 114.68 92.7812 113.695 95.3125C112.711 97.7969 112.219 100.586 112.219 103.68C112.219 106.586 112.711 109.281 113.695 111.766C114.68 114.25 116.016 116.406 117.703 118.234C119.438 120.062 121.453 121.516 123.75 122.594C126.094 123.625 128.578 124.141 131.203 124.141C133.828 124.141 136.289 123.648 138.586 122.664C140.93 121.68 142.969 120.297 144.703 118.516C146.438 116.734 147.797 114.578 148.781 112.047C149.812 109.516 150.328 106.727 150.328 103.68ZM253.055 142H248.414L240.961 131.664C239.133 133.305 237.188 134.852 235.125 136.305C233.109 137.711 230.977 138.953 228.727 140.031C226.477 141.062 224.156 141.883 221.766 142.492C219.422 143.102 217.031 143.406 214.594 143.406C209.297 143.406 204.305 142.422 199.617 140.453C194.977 138.438 190.898 135.672 187.383 132.156C183.914 128.594 181.172 124.398 179.156 119.57C177.141 114.695 176.133 109.398 176.133 103.68C176.133 98.0078 177.141 92.7344 179.156 87.8594C181.172 82.9844 183.914 78.7656 187.383 75.2031C190.898 71.6406 194.977 68.8516 199.617 66.8359C204.305 64.8203 209.297 63.8125 214.594 63.8125C216.281 63.8125 218.016 63.9531 219.797 64.2344C221.625 64.5156 223.383 64.9844 225.07 65.6406C226.805 66.25 228.422 67.0703 229.922 68.1016C231.422 69.1328 232.688 70.3984 233.719 71.8984V36.7422H253.055V142ZM233.719 103.68C233.719 101.055 233.203 98.5234 232.172 96.0859C231.188 93.6016 229.828 91.4219 228.094 89.5469C226.359 87.625 224.32 86.1016 221.977 84.9766C219.68 83.8047 217.219 83.2188 214.594 83.2188C211.969 83.2188 209.484 83.6875 207.141 84.625C204.844 85.5625 202.828 86.9219 201.094 88.7031C199.406 90.4375 198.07 92.5703 197.086 95.1016C196.102 97.6328 195.609 100.492 195.609 103.68C195.609 106.445 196.102 109.07 197.086 111.555C198.07 114.039 199.406 116.219 201.094 118.094C202.828 119.969 204.844 121.445 207.141 122.523C209.484 123.602 211.969 124.141 214.594 124.141C217.219 124.141 219.68 123.578 221.977 122.453C224.32 121.281 226.359 119.758 228.094 117.883C229.828 115.961 231.188 113.781 232.172 111.344C233.203 108.859 233.719 106.305 233.719 103.68ZM297.703 123.578C298.453 123.812 299.203 123.977 299.953 124.07C300.703 124.117 301.453 124.141 302.203 124.141C304.078 124.141 305.883 123.883 307.617 123.367C309.352 122.852 310.969 122.125 312.469 121.188C314.016 120.203 315.375 119.031 316.547 117.672C317.766 116.266 318.75 114.719 319.5 113.031L333.562 127.164C331.781 129.695 329.719 131.969 327.375 133.984C325.078 136 322.57 137.711 319.852 139.117C317.18 140.523 314.344 141.578 311.344 142.281C308.391 143.031 305.344 143.406 302.203 143.406C296.906 143.406 291.914 142.422 287.227 140.453C282.586 138.484 278.508 135.742 274.992 132.227C271.523 128.711 268.781 124.539 266.766 119.711C264.75 114.836 263.742 109.492 263.742 103.68C263.742 97.7266 264.75 92.2891 266.766 87.3672C268.781 82.4453 271.523 78.25 274.992 74.7812C278.508 71.3125 282.586 68.6172 287.227 66.6953C291.914 64.7734 296.906 63.8125 302.203 63.8125C305.344 63.8125 308.414 64.1875 311.414 64.9375C314.414 65.6875 317.25 66.7656 319.922 68.1719C322.641 69.5781 325.172 71.3125 327.516 73.375C329.859 75.3906 331.922 77.6641 333.703 80.1953L297.703 123.578ZM307.547 83.9922C306.656 83.6641 305.766 83.4531 304.875 83.3594C304.031 83.2656 303.141 83.2188 302.203 83.2188C299.578 83.2188 297.094 83.7109 294.75 84.6953C292.453 85.6328 290.438 86.9922 288.703 88.7734C287.016 90.5547 285.68 92.7109 284.695 95.2422C283.711 97.7266 283.219 100.539 283.219 103.68C283.219 104.383 283.242 105.18 283.289 106.07C283.383 106.961 283.5 107.875 283.641 108.812C283.828 109.703 284.039 110.57 284.273 111.414C284.508 112.258 284.812 113.008 285.188 113.664L307.547 83.9922ZM339.539 71.4062C339.539 67.2344 340.336 63.3203 341.93 59.6641C343.523 56.0078 345.68 52.8203 348.398 50.1016C351.164 47.3359 354.375 45.1563 358.031 43.5625C361.688 41.9687 365.602 41.1719 369.773 41.1719H416.039V61.3516H369.773C368.367 61.3516 367.055 61.6094 365.836 62.125C364.617 62.6406 363.539 63.3672 362.602 64.3047C361.711 65.1953 361.008 66.25 360.492 67.4688C359.977 68.6875 359.719 70 359.719 71.4062C359.719 72.8125 359.977 74.1484 360.492 75.4141C361.008 76.6328 361.711 77.7109 362.602 78.6484C363.539 79.5391 364.617 80.2422 365.836 80.7578C367.055 81.2734 368.367 81.5312 369.773 81.5312H389.953C394.125 81.5312 398.039 82.3281 401.695 83.9219C405.398 85.4688 408.609 87.625 411.328 90.3906C414.094 93.1094 416.25 96.3203 417.797 100.023C419.391 103.68 420.188 107.594 420.188 111.766C420.188 115.938 419.391 119.852 417.797 123.508C416.25 127.164 414.094 130.375 411.328 133.141C408.609 135.859 405.398 138.016 401.695 139.609C398.039 141.203 394.125 142 389.953 142H345.164V121.82H389.953C391.359 121.82 392.672 121.562 393.891 121.047C395.109 120.531 396.164 119.828 397.055 118.938C397.992 118 398.719 116.922 399.234 115.703C399.75 114.484 400.008 113.172 400.008 111.766C400.008 110.359 399.75 109.047 399.234 107.828C398.719 106.609 397.992 105.555 397.055 104.664C396.164 103.727 395.109 103 393.891 102.484C392.672 101.969 391.359 101.711 389.953 101.711H369.773C365.602 101.711 361.688 100.914 358.031 99.3203C354.375 97.7266 351.164 95.5703 348.398 92.8516C345.68 90.0859 343.523 86.875 341.93 83.2188C340.336 79.5156 339.539 75.5781 339.539 71.4062ZM450.633 142H431.438V36.7422H450.633V70C452.93 68.2656 455.297 67.0469 457.734 66.3438C460.172 65.5938 462.656 65.2188 465.188 65.2188C469.828 65.2188 474.188 66.1094 478.266 67.8906C482.344 69.625 485.883 72.0391 488.883 75.1328C491.93 78.1797 494.32 81.7656 496.055 85.8906C497.836 89.9688 498.727 94.3281 498.727 98.9688V142H479.391V98.9688H479.531C479.531 97 479.156 95.1484 478.406 93.4141C477.656 91.6328 476.625 90.0859 475.312 88.7734C474 87.4609 472.477 86.4297 470.742 85.6797C469.008 84.9297 467.156 84.5547 465.188 84.5547C463.172 84.5547 461.273 84.9297 459.492 85.6797C457.711 86.4297 456.164 87.4609 454.852 88.7734C453.539 90.0859 452.508 91.6328 451.758 93.4141C451.008 95.1484 450.633 97 450.633 98.9688V142ZM585.211 103.68C585.211 109.305 584.203 114.555 582.188 119.43C580.172 124.258 577.43 128.453 573.961 132.016C570.492 135.531 566.414 138.32 561.727 140.383C557.086 142.398 552.094 143.406 546.75 143.406C541.453 143.406 536.461 142.398 531.773 140.383C527.133 138.32 523.055 135.531 519.539 132.016C516.07 128.453 513.328 124.258 511.312 119.43C509.297 114.555 508.289 109.305 508.289 103.68C508.289 97.9609 509.297 92.6641 511.312 87.7891C513.328 82.9141 516.07 78.7188 519.539 75.2031C523.055 71.6406 527.133 68.8516 531.773 66.8359C536.461 64.8203 541.453 63.8125 546.75 63.8125C552.094 63.8125 557.086 64.7734 561.727 66.6953C566.414 68.5703 570.492 71.2656 573.961 74.7812C577.43 78.25 580.172 82.4453 582.188 87.3672C584.203 92.2422 585.211 97.6797 585.211 103.68ZM565.875 103.68C565.875 100.586 565.359 97.7969 564.328 95.3125C563.344 92.7812 561.984 90.625 560.25 88.8438C558.516 87.0156 556.477 85.6328 554.133 84.6953C551.836 83.7109 549.375 83.2188 546.75 83.2188C544.125 83.2188 541.641 83.7109 539.297 84.6953C537 85.6328 534.984 87.0156 533.25 88.8438C531.562 90.625 530.227 92.7812 529.242 95.3125C528.258 97.7969 527.766 100.586 527.766 103.68C527.766 106.586 528.258 109.281 529.242 111.766C530.227 114.25 531.562 116.406 533.25 118.234C534.984 120.062 537 121.516 539.297 122.594C541.641 123.625 544.125 124.141 546.75 124.141C549.375 124.141 551.836 123.648 554.133 122.664C556.477 121.68 558.516 120.297 560.25 118.516C561.984 116.734 563.344 114.578 564.328 112.047C565.359 109.516 565.875 106.727 565.875 103.68ZM615.164 170.688H595.828V66.6953H600.469L608.133 75.7656C609.867 74.125 611.766 72.5781 613.828 71.125C615.891 69.6719 618.023 68.4297 620.227 67.3984C622.477 66.3203 624.797 65.4766 627.188 64.8672C629.578 64.2578 631.992 63.9531 634.43 63.9531C639.727 63.9531 644.695 64.9141 649.336 66.8359C654.023 68.7109 658.102 71.3828 661.57 74.8516C665.086 78.3203 667.852 82.5156 669.867 87.4375C671.883 92.3125 672.891 97.7266 672.891 103.68C672.891 109.867 671.883 115.445 669.867 120.414C667.852 125.336 665.086 129.531 661.57 133C658.102 136.422 654.023 139.047 649.336 140.875C644.695 142.703 639.727 143.617 634.43 143.617C632.742 143.617 631.055 143.43 629.367 143.055C627.727 142.68 626.086 142.188 624.445 141.578C622.852 140.922 621.258 140.195 619.664 139.398C618.117 138.602 616.617 137.781 615.164 136.938V170.688ZM653.625 103.68C653.625 100.492 653.109 97.6328 652.078 95.1016C651.094 92.5703 649.734 90.4375 648 88.7031C646.266 86.9219 644.227 85.5625 641.883 84.625C639.539 83.6875 637.055 83.2188 634.43 83.2188C631.805 83.2188 629.32 83.6875 626.977 84.625C624.68 85.5625 622.664 86.9219 620.93 88.7031C619.195 90.4375 617.812 92.5703 616.781 95.1016C615.797 97.6328 615.305 100.492 615.305 103.68C615.305 106.727 615.797 109.516 616.781 112.047C617.812 114.578 619.195 116.734 620.93 118.516C622.664 120.297 624.68 121.68 626.977 122.664C629.32 123.648 631.805 124.141 634.43 124.141C637.055 124.141 639.539 123.648 641.883 122.664C644.227 121.68 646.266 120.297 648 118.516C649.734 116.734 651.094 114.578 652.078 112.047C653.109 109.516 653.625 106.727 653.625 103.68Z" fill="white"/>
</svg>